<?xml version="1.0" encoding="UTF-8" standalone="no"?>
<!DOCTYPE svg PUBLIC "-//W3C//DTD SVG 1.1//EN" "http://www.w3.org/Graphics/SVG/1.1/DTD/svg11.dtd">
<svg width="100%" height="100%" viewBox="0 0 381 110" version="1.1" xmlns="http://www.w3.org/2000/svg" xmlns:xlink="http://www.w3.org/1999/xlink" xml:space="preserve" xmlns:serif="http://www.serif.com/" style="fill-rule:evenodd;clip-rule:evenodd;stroke-linejoin:round;stroke-miterlimit:2;">
    <g transform="matrix(1,0,0,1,-1552.37,-3076.69)">
        <g id="Logo-white" serif:id="Logo white" transform="matrix(1,0,0,1,1134.13,80.9308)">
            <path d="M419.698,3026.24C420.185,3016.52 423.612,3009.01 429.98,3003.71C436.348,2998.41 444.733,2995.76 455.136,2995.76C462.233,2995.76 468.31,2997 473.365,2999.48C478.421,3001.96 482.237,3005.31 484.813,3009.54C487.389,3013.77 488.678,3018.56 488.678,3023.91C488.678,3030.03 487.098,3035.21 483.938,3039.44C480.778,3043.67 477.011,3046.51 472.636,3047.97L472.636,3048.55C478.275,3050.3 482.674,3053.41 485.834,3057.89C488.994,3062.36 490.573,3068.09 490.573,3075.09C490.573,3080.93 489.237,3086.13 486.563,3090.7C483.889,3095.27 479.952,3098.84 474.751,3101.42C469.549,3103.99 463.303,3105.28 456.011,3105.28C445.025,3105.28 436.08,3102.51 429.178,3096.97C422.275,3091.43 418.629,3083.26 418.24,3072.47L438.073,3072.47C438.268,3077.23 439.896,3081.05 442.959,3083.92C446.021,3086.78 450.226,3088.22 455.573,3088.22C460.532,3088.22 464.348,3086.83 467.021,3084.06C469.695,3081.29 471.032,3077.72 471.032,3073.34C471.032,3067.51 469.185,3063.33 465.49,3060.8C461.796,3058.28 456.06,3057.01 448.282,3057.01L444.053,3057.01L444.053,3040.24L448.282,3040.24C462.087,3040.24 468.99,3035.62 468.99,3026.39C468.99,3022.2 467.751,3018.95 465.271,3016.62C462.792,3014.28 459.219,3013.12 454.553,3013.12C449.983,3013.12 446.459,3014.36 443.98,3016.83C441.501,3019.31 440.067,3022.45 439.678,3026.24L419.698,3026.24Z" style="fill:white;fill-rule:nonzero;"/>
            <g transform="matrix(1,0,0,1,-127.016,-34.0994)">
                <path d="M652.462,3059.92C655.36,3057.26 659.093,3055.12 663.658,3053.49C668.224,3051.85 673.375,3051.03 679.111,3051.03C685.82,3051.03 691.686,3052.23 696.71,3054.61C701.735,3056.99 705.437,3060.39 707.817,3064.82C710.196,3069.24 710.87,3074.38 709.838,3080.23C708.806,3086.08 706.317,3091.24 702.372,3095.7C698.426,3100.15 693.518,3103.59 687.647,3106.01C681.777,3108.42 675.488,3109.63 668.779,3109.63C663.14,3109.63 658.302,3108.81 654.263,3107.18C650.225,3105.55 647.218,3103.44 645.244,3100.85L639.052,3135.97L614.114,3135.97L628.946,3051.85L653.884,3051.85L652.462,3059.92ZM684.463,3080.23C685.231,3075.88 684.109,3072.46 681.095,3069.97C678.082,3067.49 674.047,3066.25 668.992,3066.25C664.033,3066.25 659.607,3067.51 655.711,3070.02C651.816,3072.54 649.484,3075.98 648.716,3080.33C647.948,3084.69 649.068,3088.13 652.075,3090.64C655.083,3093.16 659.065,3094.42 664.024,3094.42C668.982,3094.42 673.436,3093.14 677.386,3090.59C681.336,3088.04 683.695,3084.59 684.463,3080.23Z" style="fill:white;fill-rule:nonzero;"/>
                <path d="M748.889,3033.27L735.569,3108.81L710.632,3108.81L723.952,3033.27L748.889,3033.27Z" style="fill:white;fill-rule:nonzero;"/>
                <path d="M746.442,3080.23C747.474,3074.38 749.96,3069.24 753.9,3064.82C757.84,3060.39 762.742,3056.99 768.606,3054.61C774.471,3052.23 780.757,3051.03 787.465,3051.03C793.202,3051.03 798.089,3051.85 802.127,3053.49C806.166,3055.12 809.117,3057.26 810.983,3059.92L812.405,3051.85L837.342,3051.85L827.298,3108.81L802.361,3108.81L803.783,3100.75C800.884,3103.4 797.128,3105.55 792.513,3107.18C787.899,3108.81 782.724,3109.63 776.988,3109.63C770.376,3109.63 764.562,3108.42 759.543,3106.01C754.525,3103.59 750.829,3100.15 748.455,3095.7C746.081,3091.24 745.41,3086.08 746.442,3080.23ZM807.383,3080.33C808.151,3075.98 807.031,3072.54 804.024,3070.02C801.016,3067.51 797.033,3066.25 792.075,3066.25C787.117,3066.25 782.693,3067.49 778.803,3069.97C774.914,3072.46 772.585,3075.88 771.817,3080.23C771.049,3084.59 772.166,3088.04 775.167,3090.59C778.169,3093.14 782.149,3094.42 787.107,3094.42C792.065,3094.42 796.492,3093.16 800.388,3090.64C804.283,3088.13 806.615,3084.69 807.383,3080.33Z" style="fill:white;fill-rule:nonzero;"/>
                <path d="M897.825,3051.24C907.353,3051.24 914.58,3053.4 919.505,3057.72C924.431,3062.04 926.227,3067.98 924.895,3075.53L919.027,3108.81L894.236,3108.81L899.69,3077.88C900.362,3074.07 899.474,3071.11 897.027,3069C894.579,3066.89 890.973,3065.84 886.21,3065.84C881.446,3065.84 877.468,3066.89 874.277,3069C871.085,3071.11 869.153,3074.07 868.481,3077.88L863.027,3108.81L838.09,3108.81L848.134,3051.85L873.071,3051.85L871.739,3059.41C874.711,3056.89 878.465,3054.9 883.001,3053.43C887.537,3051.97 892.478,3051.24 897.825,3051.24Z" style="fill:white;fill-rule:nonzero;"/>
            </g>
        </g>
    </g>
</svg>
