<?xml version="1.0" encoding="UTF-8" standalone="no"?><!DOCTYPE svg PUBLIC "-//W3C//DTD SVG 1.1//EN" "http://www.w3.org/Graphics/SVG/1.1/DTD/svg11.dtd"><svg width="100%" height="100%" viewBox="0 0 88 57" version="1.1" xmlns="http://www.w3.org/2000/svg" xmlns:xlink="http://www.w3.org/1999/xlink" xml:space="preserve" xmlns:serif="http://www.serif.com/" style="fill-rule:evenodd;clip-rule:evenodd;stroke-linecap:round;stroke-linejoin:round;stroke-miterlimit:1.5;"><path d="M74.456,25.861c-8.36,-5.795 -15.574,-12.302 -21.637,-19.526c-0.881,-0.739 -0.876,-2.197 0.011,-3.254c0.887,-1.057 2.322,-1.315 3.203,-0.576c7.097,9.657 16.122,17.642 27.572,23.523c0.163,0.063 0.323,0.144 0.477,0.243c0.225,0.113 0.45,0.226 0.677,0.338c0.501,0.421 0.715,1.073 0.644,1.752c0.071,0.679 -0.143,1.332 -0.644,1.752c-0.227,0.112 -0.452,0.225 -0.677,0.339c-0.154,0.098 -0.314,0.179 -0.477,0.243c-11.45,5.881 -20.475,13.866 -27.572,23.522c-0.881,0.74 -2.316,0.481 -3.203,-0.575c-0.887,-1.057 -0.892,-2.516 -0.011,-3.255c6.063,-7.224 13.277,-13.731 21.637,-19.526l-69.873,0c-1.379,0 -2.5,-1.12 -2.5,-2.5c0,-1.38 1.121,-2.5 2.5,-2.5l69.873,0Z" style="fill:#fff;stroke:#fff;stroke-width:4.17px;"/></svg>