<?xml version="1.0" encoding="UTF-8" standalone="no"?><!DOCTYPE svg PUBLIC "-//W3C//DTD SVG 1.1//EN" "http://www.w3.org/Graphics/SVG/1.1/DTD/svg11.dtd"><svg width="100%" height="100%" viewBox="0 0 125 125" version="1.1" xmlns="http://www.w3.org/2000/svg" xmlns:xlink="http://www.w3.org/1999/xlink" xml:space="preserve" xmlns:serif="http://www.serif.com/" style="fill-rule:evenodd;clip-rule:evenodd;stroke-linejoin:round;stroke-miterlimit:2;"><path d="M61.719,61.719c2.257,-2.778 3.928,-5.643 5.013,-8.594c1.085,-2.951 1.627,-6.38 1.627,-10.286c0,-3.907 -0.542,-7.336 -1.627,-10.287c-1.085,-2.951 -2.756,-5.816 -5.013,-8.594c6.597,-1.475 12.391,-0.477 17.383,2.995c4.991,3.472 7.487,8.767 7.487,15.886c-0,7.118 -2.496,12.413 -7.487,15.885c-4.992,3.472 -10.786,4.47 -17.383,2.995Zm28.125,42.448l-0,-12.24c-0,-4.427 -1.129,-8.55 -3.386,-12.37c-2.257,-3.819 -6.163,-7.031 -11.718,-9.635c15.017,1.91 25.282,4.687 30.794,8.333c5.512,3.646 8.268,8.203 8.268,13.672l0,12.24l-23.958,-0Zm14.323,-37.631l-0,-13.02l-13.021,-0l-0,-7.813l13.021,0l-0,-13.021l7.812,0l0,13.021l13.021,0l0,7.813l-13.021,-0l0,13.02l-7.812,0Zm-63.151,-4.166c-5.73,-0 -10.417,-1.823 -14.063,-5.469c-3.646,-3.646 -5.469,-8.333 -5.469,-14.062c0,-5.73 1.823,-10.417 5.469,-14.063c3.646,-3.646 8.333,-5.469 14.063,-5.469c5.729,0 10.416,1.823 14.062,5.469c3.646,3.646 5.469,8.333 5.469,14.063c-0,5.729 -1.823,10.416 -5.469,14.062c-3.646,3.646 -8.333,5.469 -14.062,5.469Zm-41.016,41.797l-0,-12.24c-0,-3.038 0.803,-5.794 2.409,-8.268c1.606,-2.474 3.754,-4.319 6.445,-5.534c6.25,-2.778 11.827,-4.774 16.732,-5.99c4.904,-1.215 10.048,-1.822 15.43,-1.822c5.382,-0 10.503,0.607 15.364,1.822c4.861,1.216 10.417,3.212 16.667,5.99c2.691,1.215 4.861,3.06 6.51,5.534c1.65,2.474 2.474,5.23 2.474,8.268l0,12.24l-82.031,-0Zm41.016,-49.61c3.385,0 6.185,-1.106 8.398,-3.32c2.214,-2.214 3.32,-5.013 3.32,-8.398c0,-3.386 -1.106,-6.185 -3.32,-8.399c-2.213,-2.213 -5.013,-3.32 -8.398,-3.32c-3.386,-0 -6.185,1.107 -8.399,3.32c-2.213,2.214 -3.32,5.013 -3.32,8.399c-0,3.385 1.107,6.184 3.32,8.398c2.214,2.214 5.013,3.32 8.399,3.32Zm-33.204,41.797l66.407,0l-0,-4.427c-0,-1.389 -0.347,-2.691 -1.042,-3.906c-0.694,-1.215 -1.779,-2.17 -3.255,-2.865c-5.99,-2.778 -11.068,-4.644 -15.235,-5.599c-4.166,-0.955 -8.723,-1.432 -13.671,-1.432c-4.948,0 -9.484,0.477 -13.607,1.432c-4.123,0.955 -9.267,2.821 -15.43,5.599c-1.302,0.608 -2.322,1.541 -3.06,2.8c-0.738,1.258 -1.107,2.582 -1.107,3.971l0,4.427Z" style="fill-rule:nonzero;"/></svg>